<svg xmlns="http://www.w3.org/2000/svg" xmlns:xlink="http://www.w3.org/1999/xlink" width="100" height="100" viewBox="0 0 100 100">
  <defs>
    <style>
      .cls-1 {
        clip-path: url(#clip-aws);
      }

      .cls-2 {
        fill: #990080;
      }

      .cls-3 {
        fill: #fff;
      }
    </style>
    <clipPath id="clip-aws">
      <rect width="100" height="100"/>
    </clipPath>
  </defs>
  <g id="aws" class="cls-1">
    <rect class="cls-3" width="100" height="100"/>
    <circle id="Ellipse_1" data-name="Ellipse 1" class="cls-2" cx="50" cy="50" r="50"/>
    <path id="Pfad_2" data-name="Pfad 2" class="cls-3" d="M21.142-28.71v-8.12c.014-.178.025-.468.025-.646a9.526,9.526,0,0,0-2.1-5.489,10.463,10.463,0,0,0-5.733-2.06c-.219,0-.575.016-.794.035-3.525-.02-7.117,1.38-7.727,2.13-.166.319-.524,2.836.344,2.836.287,0,.4.066,1.26-.331a13.979,13.979,0,0,1,5.372-1.185c3.528-.361,5.566,2.045,5.251,5.146v1.83a23.534,23.534,0,0,0-5.507-.735c-4.321-.236-8.5,2.551-8.312,7.037-.266,5.5,4.9,6.691,6.812,6.587h.148a10.425,10.425,0,0,0,7.189-3.452c1.44,3.216,2.35,3,2.4,3a1.469,1.469,0,0,0,.66-.225l1.5-1.05a1.074,1.074,0,0,0,.48-.735C22.384-24.88,21.057-26.055,21.142-28.71Zm-10.127,3.8A3.255,3.255,0,0,1,7.5-28.486c-.127-3.121,3.116-3.914,4.891-3.78a20.137,20.137,0,0,1,4.636.571,11.738,11.738,0,0,1-.24,3.211C16.424-27.254,14.815-24.969,11.014-24.914Zm20.03,2.7h2.145a1.35,1.35,0,0,0,1.486-1.26l3.841-16.054L42.4-23.457a1.352,1.352,0,0,0,1.486,1.26h2.19a1.352,1.352,0,0,0,1.486-1.215c6.581-21.159,6.131-19.693,6.182-19.91.106-1.1-.516-1.021-.615-1.005H50.819a1.371,1.371,0,0,0-1.486,1.215L45.013-26.4,41.1-43.113a1.3,1.3,0,0,0-1.486-1.215H37.6a1.326,1.326,0,0,0-1.5,1.2l-3.886,16.5-4.186-16.5a1.331,1.331,0,0,0-1.471-1.215H23.95a.558.558,0,0,0-.458.534.662.662,0,0,0,.006.081,4.48,4.48,0,0,0,.225,1.005l5.836,19.295A1.353,1.353,0,0,0,31.044-22.213Zm32.048.66c.1,0,5.881.36,8.116-4.034a6.368,6.368,0,0,0-.51-6.5c-1.7-1.968-3.124-2.181-7.4-3.466-.362-.1-3.531-.929-3.48-3.151-.173-2.819,3.694-2.968,4.5-2.926,3.254-.049,4.857,1.159,5.761,1.26q.571,0,.571-.78v-1.185a1.416,1.416,0,0,0-.225-.825c-1.071-1.346-5.027-1.832-6.512-1.83-5.211-.027-8.218,3.247-8.147,6.557.011,4.541,4.588,5.985,5.132,6.136,4.412,1.392,5,1.431,6.226,2.461a2.694,2.694,0,0,1-.615,4.1c-.463.255-2.352,1.407-6.647.525a16.093,16.093,0,0,1-3.376-1.125c-.308-.118-1.035-.3-1.035.69v1.274a1.624,1.624,0,0,0,.915,1.382A15.832,15.832,0,0,0,63.092-21.553ZM67.8-9.265c1.365-1.005.195-2.506-1.186-1.92A88.07,88.07,0,0,1,38.306-5.378h-.048c-10.959,0-27.574-4.416-37.087-9.858-.931-.526-1.605.42-.84,1.11C8.993-6.315,25.487.023,37.149.023h.362C47.684.022,59.6-3.2,67.8-9.265Zm3.421-3.9c1.05,1.351-1.171,6.887-2.16,9.377-.3.75.346,1.051,1.021.48,4.4-3.691,5.521-11.419,4.636-12.528s-8.6-2.055-13.294,1.246c-.721.51-.586,1.2.21,1.11C64.277-13.8,70.174-14.516,71.224-13.166Z" transform="translate(12 76.026)"/>
  </g>
</svg>
