<svg id="aws" xmlns="http://www.w3.org/2000/svg" width="128" height="128" viewBox="0 0 128 128">
  <circle id="Ellipse_1" data-name="Ellipse 1" cx="64" cy="64" r="64" fill="#990080"/>
  <path id="Pfad_2" data-name="Pfad 2" d="M27.062-24.141V-34.535c.018-.228.033-.6.033-.827a12.193,12.193,0,0,0-2.683-7.027,13.392,13.392,0,0,0-7.338-2.637c-.281,0-.736.02-1.016.045-4.512-.025-9.109,1.767-9.891,2.727-.213.408-.67,3.63.441,3.63.368,0,.509.084,1.612-.423A17.893,17.893,0,0,1,15.1-40.563c4.516-.462,7.125,2.618,6.721,6.587v2.343a30.124,30.124,0,0,0-7.049-.94c-5.531-.3-10.878,3.265-10.639,9.007C3.79-16.521,10.408-15,12.851-15.135l.189,0a13.345,13.345,0,0,0,9.2-4.419c1.844,4.116,3.007,3.839,3.072,3.842A1.88,1.88,0,0,0,26.158-16l1.92-1.344a1.375,1.375,0,0,0,.615-.941C28.651-19.239,26.954-20.744,27.062-24.141ZM14.1-19.283A4.167,4.167,0,0,1,9.6-23.855c-.162-3.994,3.988-5.01,6.261-4.839a25.776,25.776,0,0,1,5.934.731,15.025,15.025,0,0,1-.307,4.11C21.023-22.278,18.963-19.353,14.1-19.283Zm25.638,3.457h2.745a1.729,1.729,0,0,0,1.9-1.612L49.3-37.988l4.974,20.569a1.731,1.731,0,0,0,1.9,1.612h2.8a1.731,1.731,0,0,0,1.9-1.556c8.424-27.084,7.848-25.207,7.912-25.485.135-1.408-.66-1.306-.787-1.287H65.049a1.755,1.755,0,0,0-1.9,1.555L57.616-21.183,52.6-42.578a1.66,1.66,0,0,0-1.9-1.555H48.127a1.7,1.7,0,0,0-1.92,1.536L41.233-21.473,35.875-42.6a1.7,1.7,0,0,0-1.882-1.556H30.656a.714.714,0,0,0-.587.684.848.848,0,0,0,.008.1,5.734,5.734,0,0,0,.288,1.287l7.47,24.7A1.732,1.732,0,0,0,39.736-15.825Zm41.022.844c.126,0,7.527.461,10.389-5.163.532-1.071,1.918-4.979-.653-8.316-2.17-2.518-4-2.791-9.468-4.437-.463-.123-4.519-1.189-4.455-4.033-.222-3.609,4.728-3.8,5.761-3.745,4.166-.063,6.218,1.483,7.374,1.612q.731,0,.731-1v-1.517a1.813,1.813,0,0,0-.288-1.056c-1.371-1.723-6.435-2.344-8.336-2.343-6.67-.034-10.519,4.156-10.428,8.393.013,5.812,5.872,7.661,6.568,7.854,5.647,1.782,6.4,1.831,7.969,3.15a3.449,3.449,0,0,1-.787,5.243c-.593.327-3.011,1.8-8.508.672a20.6,20.6,0,0,1-4.322-1.44c-.394-.151-1.325-.384-1.325.883v1.631a2.079,2.079,0,0,0,1.172,1.768A20.265,20.265,0,0,0,80.758-14.981ZM86.788.748c1.748-1.287.249-3.207-1.518-2.457C75.678,2.338,59.443,5.668,49.032,5.724h-.061C34.943,5.724,13.676.071,1.5-6.894.309-7.568-.555-6.357.425-5.474c11.086,10,32.2,18.111,47.126,18.111h.464C61.035,12.636,76.284,8.506,86.788.748Zm4.379-4.993c1.344,1.729-1.5,8.815-2.765,12-.384.96.443,1.345,1.306.615,5.627-4.725,7.067-14.616,5.934-16.036S84.637-10.295,78.627-6.069c-.922.652-.75,1.536.269,1.42C82.275-5.052,89.823-5.973,91.167-4.245Z" transform="translate(15.36 84.706)" fill="#fff"/>
</svg>
